<svg width="25" height="24" viewBox="0 0 25 24" fill="none" xmlns="http://www.w3.org/2000/svg">
<path d="M21.0997 11.5C21.0997 16.1944 17.2941 20 12.5997 20C11.5229 20 10.4929 19.7998 9.54488 19.4345C9.37155 19.3678 9.28488 19.3344 9.21596 19.3185C9.14817 19.3029 9.0991 19.2963 9.02959 19.2937C8.95891 19.291 8.88137 19.299 8.72629 19.315L3.60527 19.8444C3.11702 19.8948 2.8729 19.9201 2.7289 19.8322C2.60347 19.7557 2.51804 19.6279 2.4953 19.4828C2.46919 19.3161 2.58585 19.1002 2.81916 18.6684L4.45482 15.6408C4.58952 15.3915 4.65687 15.2668 4.68738 15.1469C4.7175 15.0286 4.72479 14.9432 4.71515 14.8214C4.70539 14.6981 4.65129 14.5376 4.5431 14.2166C4.25557 13.3636 4.09972 12.45 4.09972 11.5C4.09972 6.80558 7.9053 3 12.5997 3C17.2941 3 21.0997 6.80558 21.0997 11.5Z" stroke="#E8683B" stroke-width="1.4" stroke-linecap="round" stroke-linejoin="round"/>
</svg>
