<svg width="25" height="24" viewBox="0 0 25 24" fill="none" xmlns="http://www.w3.org/2000/svg">
<path d="M21.0992 11.5C21.0992 16.1944 17.2936 20 12.5992 20C11.5224 20 10.4924 19.7998 9.54439 19.4345C9.37106 19.3678 9.28439 19.3344 9.21547 19.3185C9.14768 19.3029 9.09861 19.2963 9.0291 19.2937C8.95842 19.291 8.88088 19.299 8.7258 19.315L3.60478 19.8444C3.11653 19.8948 2.87241 19.9201 2.72841 19.8322C2.60298 19.7557 2.51755 19.6279 2.49481 19.4828C2.4687 19.3161 2.58536 19.1002 2.81867 18.6684L4.45433 15.6408C4.58903 15.3915 4.65638 15.2668 4.68689 15.1469C4.71701 15.0286 4.7243 14.9432 4.71466 14.8214C4.7049 14.6981 4.6508 14.5376 4.54261 14.2166C4.25508 13.3636 4.09923 12.45 4.09923 11.5C4.09923 6.80558 7.90481 3 12.5992 3C17.2936 3 21.0992 6.80558 21.0992 11.5Z" stroke="#888888" stroke-width="1.4" stroke-linecap="round" stroke-linejoin="round"/>
</svg>
