<svg width="25" height="24" viewBox="0 0 25 24" fill="none" xmlns="http://www.w3.org/2000/svg">
<path d="M13.2821 2.764C12.9308 2.49075 12.7551 2.35412 12.5611 2.3016C12.39 2.25526 12.2096 2.25526 12.0385 2.3016C11.8445 2.35412 11.6688 2.49075 11.3175 2.764L4.53519 8.03912C4.08182 8.39175 3.85514 8.56806 3.69183 8.78886C3.54717 8.98444 3.4394 9.20478 3.37383 9.43905C3.2998 9.70352 3.2998 9.9907 3.2998 10.5651V17.8C3.2998 18.9201 3.2998 19.4801 3.51779 19.908C3.70953 20.2843 4.01549 20.5903 4.39182 20.782C4.81964 21 5.3797 21 6.4998 21H8.4998C8.77983 21 8.91984 21 9.0268 20.9455C9.12088 20.8976 9.19738 20.8211 9.24531 20.727C9.29981 20.62 9.2998 20.48 9.2998 20.2V13.6C9.2998 13.0399 9.2998 12.7599 9.40879 12.546C9.50467 12.3578 9.65765 12.2049 9.84581 12.109C10.0597 12 10.3397 12 10.8998 12H13.6998C14.2599 12 14.5399 12 14.7538 12.109C14.942 12.2049 15.0949 12.3578 15.1908 12.546C15.2998 12.7599 15.2998 13.0399 15.2998 13.6V20.2C15.2998 20.48 15.2998 20.62 15.3543 20.727C15.4022 20.8211 15.4787 20.8976 15.5728 20.9455C15.6798 21 15.8198 21 16.0998 21H18.0998C19.2199 21 19.78 21 20.2078 20.782C20.5841 20.5903 20.8901 20.2843 21.0818 19.908C21.2998 19.4801 21.2998 18.9201 21.2998 17.8V10.5651C21.2998 9.9907 21.2998 9.70352 21.2258 9.43905C21.1602 9.20478 21.0524 8.98444 20.9078 8.78886C20.7445 8.56806 20.5178 8.39175 20.0644 8.03913L13.2821 2.764Z" stroke="#888888" stroke-width="1.4" stroke-linecap="round" stroke-linejoin="round"/>
</svg>
