<svg width="25" height="24" viewBox="0 0 25 24" fill="none" xmlns="http://www.w3.org/2000/svg">
<path d="M9.29941 3H5.49941C4.93936 3 4.65933 3 4.44542 3.10899C4.25726 3.20487 4.10428 3.35785 4.0084 3.54601C3.89941 3.75992 3.89941 4.03995 3.89941 4.6V8.4C3.89941 8.96005 3.89941 9.24008 4.0084 9.45399C4.10428 9.64215 4.25726 9.79513 4.44542 9.89101C4.65933 10 4.93936 10 5.49941 10H9.29941C9.85946 10 10.1395 10 10.3534 9.89101C10.5416 9.79513 10.6945 9.64215 10.7904 9.45399C10.8994 9.24008 10.8994 8.96005 10.8994 8.4V4.6C10.8994 4.03995 10.8994 3.75992 10.7904 3.54601C10.6945 3.35785 10.5416 3.20487 10.3534 3.10899C10.1395 3 9.85946 3 9.29941 3Z" stroke="#888888" stroke-width="1.4" stroke-linecap="round" stroke-linejoin="round"/>
<path d="M20.2994 3H16.4994C15.9393 3 15.6593 3 15.4454 3.10899C15.2572 3.20487 15.1043 3.35785 15.0084 3.54601C14.8994 3.75992 14.8994 4.03995 14.8994 4.6V8.4C14.8994 8.96005 14.8994 9.24008 15.0084 9.45399C15.1043 9.64215 15.2572 9.79513 15.4454 9.89101C15.6593 10 15.9393 10 16.4994 10H20.2994C20.8595 10 21.1395 10 21.3534 9.89101C21.5416 9.79513 21.6945 9.64215 21.7904 9.45399C21.8994 9.24008 21.8994 8.96005 21.8994 8.4V4.6C21.8994 4.03995 21.8994 3.75992 21.7904 3.54601C21.6945 3.35785 21.5416 3.20487 21.3534 3.10899C21.1395 3 20.8595 3 20.2994 3Z" stroke="#888888" stroke-width="1.4" stroke-linecap="round" stroke-linejoin="round"/>
<path d="M20.2994 14H16.4994C15.9393 14 15.6593 14 15.4454 14.109C15.2572 14.2049 15.1043 14.3578 15.0084 14.546C14.8994 14.7599 14.8994 15.0399 14.8994 15.6V19.4C14.8994 19.9601 14.8994 20.2401 15.0084 20.454C15.1043 20.6422 15.2572 20.7951 15.4454 20.891C15.6593 21 15.9393 21 16.4994 21H20.2994C20.8595 21 21.1395 21 21.3534 20.891C21.5416 20.7951 21.6945 20.6422 21.7904 20.454C21.8994 20.2401 21.8994 19.9601 21.8994 19.4V15.6C21.8994 15.0399 21.8994 14.7599 21.7904 14.546C21.6945 14.3578 21.5416 14.2049 21.3534 14.109C21.1395 14 20.8595 14 20.2994 14Z" stroke="#888888" stroke-width="1.4" stroke-linecap="round" stroke-linejoin="round"/>
<path d="M9.29941 14H5.49941C4.93936 14 4.65933 14 4.44542 14.109C4.25726 14.2049 4.10428 14.3578 4.0084 14.546C3.89941 14.7599 3.89941 15.0399 3.89941 15.6V19.4C3.89941 19.9601 3.89941 20.2401 4.0084 20.454C4.10428 20.6422 4.25726 20.7951 4.44542 20.891C4.65933 21 4.93936 21 5.49941 21H9.29941C9.85946 21 10.1395 21 10.3534 20.891C10.5416 20.7951 10.6945 20.6422 10.7904 20.454C10.8994 20.2401 10.8994 19.9601 10.8994 19.4V15.6C10.8994 15.0399 10.8994 14.7599 10.7904 14.546C10.6945 14.3578 10.5416 14.2049 10.3534 14.109C10.1395 14 9.85946 14 9.29941 14Z" stroke="#888888" stroke-width="1.4" stroke-linecap="round" stroke-linejoin="round"/>
</svg>
