<svg width="25" height="24" viewBox="0 0 25 24" fill="none" xmlns="http://www.w3.org/2000/svg">
<path d="M9.30002 3H5.50002C4.93997 3 4.65994 3 4.44603 3.10899C4.25787 3.20487 4.10489 3.35785 4.00901 3.54601C3.90002 3.75992 3.90002 4.03995 3.90002 4.6V8.4C3.90002 8.96005 3.90002 9.24008 4.00901 9.45399C4.10489 9.64215 4.25787 9.79513 4.44603 9.89101C4.65994 10 4.93997 10 5.50002 10H9.30002C9.86007 10 10.1401 10 10.354 9.89101C10.5422 9.79513 10.6952 9.64215 10.791 9.45399C10.9 9.24008 10.9 8.96005 10.9 8.4V4.6C10.9 4.03995 10.9 3.75992 10.791 3.54601C10.6952 3.35785 10.5422 3.20487 10.354 3.10899C10.1401 3 9.86007 3 9.30002 3Z" stroke="#E8683B" stroke-width="1.4" stroke-linecap="round" stroke-linejoin="round"/>
<path d="M20.3 3H16.5C15.9399 3 15.6599 3 15.446 3.10899C15.2578 3.20487 15.1049 3.35785 15.009 3.54601C14.9 3.75992 14.9 4.03995 14.9 4.6V8.4C14.9 8.96005 14.9 9.24008 15.009 9.45399C15.1049 9.64215 15.2578 9.79513 15.446 9.89101C15.6599 10 15.9399 10 16.5 10H20.3C20.8601 10 21.1401 10 21.354 9.89101C21.5422 9.79513 21.6951 9.64215 21.791 9.45399C21.9 9.24008 21.9 8.96005 21.9 8.4V4.6C21.9 4.03995 21.9 3.75992 21.791 3.54601C21.6951 3.35785 21.5422 3.20487 21.354 3.10899C21.1401 3 20.8601 3 20.3 3Z" stroke="#E8683B" stroke-width="1.4" stroke-linecap="round" stroke-linejoin="round"/>
<path d="M20.3 14H16.5C15.9399 14 15.6599 14 15.446 14.109C15.2578 14.2049 15.1049 14.3578 15.009 14.546C14.9 14.7599 14.9 15.0399 14.9 15.6V19.4C14.9 19.9601 14.9 20.2401 15.009 20.454C15.1049 20.6422 15.2578 20.7951 15.446 20.891C15.6599 21 15.9399 21 16.5 21H20.3C20.8601 21 21.1401 21 21.354 20.891C21.5422 20.7951 21.6951 20.6422 21.791 20.454C21.9 20.2401 21.9 19.9601 21.9 19.4V15.6C21.9 15.0399 21.9 14.7599 21.791 14.546C21.6951 14.3578 21.5422 14.2049 21.354 14.109C21.1401 14 20.8601 14 20.3 14Z" stroke="#E8683B" stroke-width="1.4" stroke-linecap="round" stroke-linejoin="round"/>
<path d="M9.30002 14H5.50002C4.93997 14 4.65994 14 4.44603 14.109C4.25787 14.2049 4.10489 14.3578 4.00901 14.546C3.90002 14.7599 3.90002 15.0399 3.90002 15.6V19.4C3.90002 19.9601 3.90002 20.2401 4.00901 20.454C4.10489 20.6422 4.25787 20.7951 4.44603 20.891C4.65994 21 4.93997 21 5.50002 21H9.30002C9.86007 21 10.1401 21 10.354 20.891C10.5422 20.7951 10.6952 20.6422 10.791 20.454C10.9 20.2401 10.9 19.9601 10.9 19.4V15.6C10.9 15.0399 10.9 14.7599 10.791 14.546C10.6952 14.3578 10.5422 14.2049 10.354 14.109C10.1401 14 9.86007 14 9.30002 14Z" stroke="#E8683B" stroke-width="1.4" stroke-linecap="round" stroke-linejoin="round"/>
</svg>
