<svg width="25" height="24" viewBox="0 0 25 24" fill="none" xmlns="http://www.w3.org/2000/svg">
<path d="M12.7002 15C14.3571 15 15.7002 13.6569 15.7002 12C15.7002 10.3431 14.3571 9 12.7002 9C11.0433 9 9.7002 10.3431 9.7002 12C9.7002 13.6569 11.0433 15 12.7002 15Z" stroke="#E8683B" stroke-width="1.4" stroke-linecap="round" stroke-linejoin="round"/>
<path d="M19.4275 14.7273C19.3065 15.0015 19.2704 15.3056 19.3238 15.6005C19.3773 15.8954 19.5179 16.1676 19.7275 16.3818L19.782 16.4364C19.9511 16.6052 20.0852 16.8057 20.1767 17.0265C20.2682 17.2472 20.3153 17.4838 20.3153 17.7227C20.3153 17.9617 20.2682 18.1983 20.1767 18.419C20.0852 18.6397 19.9511 18.8402 19.782 19.0091C19.6132 19.1781 19.4126 19.3122 19.1919 19.4037C18.9712 19.4952 18.7346 19.5423 18.4957 19.5423C18.2567 19.5423 18.0201 19.4952 17.7994 19.4037C17.5787 19.3122 17.3782 19.1781 17.2093 19.0091L17.1547 18.9545C16.9405 18.745 16.6684 18.6044 16.3735 18.5509C16.0786 18.4974 15.7744 18.5335 15.5002 18.6545C15.2313 18.7698 15.002 18.9611 14.8405 19.205C14.679 19.4489 14.5923 19.7347 14.5911 20.0273V20.1818C14.5911 20.664 14.3996 21.1265 14.0586 21.4675C13.7176 21.8084 13.2551 22 12.7729 22C12.2907 22 11.8283 21.8084 11.4873 21.4675C11.1463 21.1265 10.9547 20.664 10.9547 20.1818V20.1C10.9477 19.7991 10.8503 19.5073 10.6752 19.2625C10.5001 19.0176 10.2554 18.8312 9.97293 18.7273C9.69873 18.6063 9.39457 18.5702 9.09967 18.6236C8.80476 18.6771 8.53264 18.8177 8.31838 19.0273L8.26384 19.0818C8.09498 19.2509 7.89445 19.385 7.67373 19.4765C7.453 19.568 7.21641 19.6151 6.97747 19.6151C6.73854 19.6151 6.50194 19.568 6.28122 19.4765C6.06049 19.385 5.85997 19.2509 5.69111 19.0818C5.52206 18.913 5.38795 18.7124 5.29646 18.4917C5.20496 18.271 5.15786 18.0344 5.15786 17.7955C5.15786 17.5565 5.20496 17.3199 5.29646 17.0992C5.38795 16.8785 5.52206 16.678 5.69111 16.5091L5.74565 16.4545C5.95523 16.2403 6.09582 15.9682 6.1493 15.6733C6.20277 15.3784 6.16667 15.0742 6.04565 14.8C5.93042 14.5311 5.73907 14.3018 5.49517 14.1403C5.25127 13.9788 4.96546 13.8921 4.67293 13.8909H4.51838C4.03617 13.8909 3.57371 13.6994 3.23273 13.3584C2.89176 13.0174 2.7002 12.5549 2.7002 12.0727C2.7002 11.5905 2.89176 11.1281 3.23273 10.7871C3.57371 10.4461 4.03617 10.2545 4.51838 10.2545H4.6002C4.9011 10.2475 5.19293 10.1501 5.43774 9.97501C5.68256 9.79991 5.86903 9.55521 5.97293 9.27273C6.09394 8.99853 6.13004 8.69437 6.07657 8.39947C6.0231 8.10456 5.88251 7.83244 5.67293 7.61818L5.61838 7.56364C5.44933 7.39478 5.31523 7.19425 5.22373 6.97353C5.13223 6.7528 5.08513 6.51621 5.08513 6.27727C5.08513 6.03834 5.13223 5.80174 5.22373 5.58102C5.31523 5.36029 5.44933 5.15977 5.61838 4.99091C5.78724 4.82186 5.98777 4.68775 6.20849 4.59626C6.42921 4.50476 6.66581 4.45766 6.90475 4.45766C7.14368 4.45766 7.38028 4.50476 7.601 4.59626C7.82172 4.68775 8.02225 4.82186 8.19111 4.99091L8.24565 5.04545C8.45991 5.25503 8.73203 5.39562 9.02694 5.4491C9.32184 5.50257 9.626 5.46647 9.9002 5.34545H9.97293C10.2418 5.23022 10.4711 5.03887 10.6326 4.79497C10.7942 4.55107 10.8809 4.26526 10.882 3.97273V3.81818C10.882 3.33597 11.0736 2.87351 11.4146 2.53253C11.7555 2.19156 12.218 2 12.7002 2C13.1824 2 13.6449 2.19156 13.9858 2.53253C14.3268 2.87351 14.5184 3.33597 14.5184 3.81818V3.9C14.5195 4.19253 14.6062 4.47834 14.7678 4.72224C14.9293 4.96614 15.1586 5.15749 15.4275 5.27273C15.7017 5.39374 16.0058 5.42984 16.3007 5.37637C16.5956 5.3229 16.8678 5.18231 17.082 4.97273L17.1366 4.91818C17.3054 4.74913 17.5059 4.61503 17.7267 4.52353C17.9474 4.43203 18.184 4.38493 18.4229 4.38493C18.6619 4.38493 18.8985 4.43203 19.1192 4.52353C19.3399 4.61503 19.5404 4.74913 19.7093 4.91818C19.8783 5.08704 20.0124 5.28757 20.1039 5.50829C20.1954 5.72901 20.2425 5.96561 20.2425 6.20455C20.2425 6.44348 20.1954 6.68008 20.1039 6.9008C20.0124 7.12152 19.8783 7.32205 19.7093 7.49091L19.6547 7.54545C19.4452 7.75971 19.3046 8.03183 19.2511 8.32674C19.1976 8.62164 19.2337 8.9258 19.3547 9.2V9.27273C19.47 9.54161 19.6613 9.77093 19.9052 9.93245C20.1491 10.094 20.4349 10.1807 20.7275 10.1818H20.882C21.3642 10.1818 21.8267 10.3734 22.1677 10.7144C22.5086 11.0553 22.7002 11.5178 22.7002 12C22.7002 12.4822 22.5086 12.9447 22.1677 13.2856C21.8267 13.6266 21.3642 13.8182 20.882 13.8182H20.8002C20.5077 13.8193 20.2219 13.906 19.978 14.0676C19.7341 14.2291 19.5427 14.4584 19.4275 14.7273Z" stroke="#E8683B" stroke-width="1.4" stroke-linecap="round" stroke-linejoin="round"/>
</svg>
