<svg width="30" height="30" viewBox="0 0 30 30" fill="none" xmlns="http://www.w3.org/2000/svg">
<circle cx="15" cy="15" r="15" fill="#E8683B" fill-opacity="0.2"/>
<path d="M12.7499 21.75V16.2C12.7499 15.7799 12.7499 15.5699 12.8317 15.4095C12.9036 15.2683 13.0183 15.1537 13.1594 15.0817C13.3199 15 13.5299 15 13.9499 15H16.0499C16.47 15 16.68 15 16.8404 15.0817C16.9816 15.1537 17.0962 15.2683 17.1682 15.4095C17.2499 15.5699 17.2499 15.7799 17.2499 16.2V21.75M7.49991 13.125L14.2799 8.04C14.5381 7.84636 14.6672 7.74953 14.809 7.7122C14.9341 7.67926 15.0657 7.67926 15.1909 7.71221C15.3326 7.74953 15.4617 7.84636 15.7199 8.04L22.4999 13.125M8.99991 12V19.35C8.99991 20.1901 8.99991 20.6101 9.1634 20.931C9.30721 21.2132 9.53668 21.4427 9.81892 21.5865C10.1398 21.75 10.5598 21.75 11.3999 21.75H18.5999C19.44 21.75 19.8601 21.75 20.1809 21.5865C20.4631 21.4427 20.6926 21.2132 20.8364 20.931C20.9999 20.6101 20.9999 20.1901 20.9999 19.35V12L16.4399 8.58C15.9235 8.19271 15.6653 7.99906 15.3817 7.92442C15.1315 7.85853 14.8684 7.85853 14.6181 7.92442C14.3345 7.99906 14.0763 8.19271 13.5599 8.58L8.99991 12Z" stroke="#E8683B" stroke-width="1.5" stroke-linecap="round" stroke-linejoin="round"/>
</svg>
