<svg width="14" height="15" viewBox="0 0 14 15" fill="none" xmlns="http://www.w3.org/2000/svg">
<path d="M8.16634 1.82397V4.23346C8.16634 4.56015 8.16634 4.7235 8.22992 4.84828C8.28587 4.95804 8.37506 5.04728 8.48484 5.10321C8.60962 5.16679 8.77295 5.16679 9.09967 5.16679H11.5091M9.33301 8.08342H4.66634M9.33301 10.4167H4.66634M5.83301 5.75008H4.66634M8.16634 1.66675H5.13301C4.15291 1.66675 3.66287 1.66675 3.28853 1.85749C2.95924 2.02526 2.69152 2.29298 2.52375 2.62227C2.33301 2.99661 2.33301 3.48665 2.33301 4.46675V10.5334C2.33301 11.5135 2.33301 12.0035 2.52375 12.3779C2.69152 12.7072 2.95924 12.9749 3.28853 13.1427C3.66287 13.3334 4.15291 13.3334 5.13301 13.3334H8.86634C9.84646 13.3334 10.3365 13.3334 10.7108 13.1427C11.0401 12.9749 11.3078 12.7072 11.4756 12.3779C11.6663 12.0035 11.6663 11.5135 11.6663 10.5334V5.16675L8.16634 1.66675Z" stroke="#767676" stroke-linecap="round" stroke-linejoin="round"/>
</svg>
