<svg width="14" height="14" viewBox="0 0 14 14" fill="none" xmlns="http://www.w3.org/2000/svg">
<path d="M8.16666 1.32393V3.73341C8.16666 4.06011 8.16666 4.22346 8.23024 4.34824C8.28619 4.458 8.37538 4.54724 8.48516 4.60317C8.60994 4.66675 8.77327 4.66675 9.1 4.66675H11.5095M11.6667 5.82654V10.0334C11.6667 11.0135 11.6667 11.5035 11.4759 11.8779C11.3081 12.2072 11.0405 12.4749 10.7112 12.6427C10.3368 12.8334 9.84678 12.8334 8.86666 12.8334H5.13333C4.15323 12.8334 3.66319 12.8334 3.28885 12.6427C2.95956 12.4749 2.69184 12.2072 2.52407 11.8779C2.33333 11.5035 2.33333 11.0135 2.33333 10.0334V3.96675C2.33333 2.98665 2.33333 2.49661 2.52407 2.12227C2.69184 1.79298 2.95956 1.52526 3.28885 1.35749C3.66319 1.16675 4.15323 1.16675 5.13333 1.16675H7.00688C7.43487 1.16675 7.64889 1.16675 7.85032 1.2151C8.02888 1.25797 8.19956 1.32868 8.35619 1.42463C8.53276 1.53285 8.68408 1.68418 8.98677 1.98685L10.8466 3.84665C11.1492 4.14931 11.3006 4.30065 11.4088 4.47725C11.5047 4.63382 11.5754 4.80453 11.6183 4.98309C11.6667 5.1845 11.6667 5.39851 11.6667 5.82654Z" stroke="#767676" stroke-width="1.08889" stroke-linecap="round" stroke-linejoin="round"/>
</svg>
