<svg width="19" height="18" viewBox="0 0 19 18" fill="none" xmlns="http://www.w3.org/2000/svg">
<path d="M16.7211 7.5H3.22113M12.9711 1.5V4.5M6.97113 1.5V4.5M6.82113 16.5H13.1211C14.3813 16.5 15.0113 16.5 15.4926 16.2548C15.916 16.0391 16.2602 15.6949 16.4759 15.2715C16.7211 14.7901 16.7211 14.1602 16.7211 12.9V6.6C16.7211 5.33988 16.7211 4.70982 16.4759 4.22852C16.2602 3.80516 15.916 3.46095 15.4926 3.24524C15.0113 3 14.3813 3 13.1211 3H6.82113C5.56101 3 4.93095 3 4.44965 3.24524C4.02629 3.46095 3.68208 3.80516 3.46637 4.22852C3.22113 4.70982 3.22113 5.33988 3.22113 6.6V12.9C3.22113 14.1602 3.22113 14.7901 3.46637 15.2715C3.68208 15.6949 4.02629 16.0391 4.44965 16.2548C4.93095 16.5 5.56101 16.5 6.82113 16.5Z" stroke="#E8683B" stroke-width="1.5" stroke-linecap="round" stroke-linejoin="round"/>
</svg>
