<svg width="30" height="30" viewBox="0 0 30 30" fill="none" xmlns="http://www.w3.org/2000/svg">
<circle cx="15" cy="15" r="15" fill="#F2C079" fill-opacity="0.1"/>
<path d="M12.5869 12.9022C13.0508 13.8687 13.6834 14.7744 14.4844 15.5755C15.2855 16.3765 16.1913 17.0091 17.1577 17.4731C17.2408 17.5129 17.2823 17.5329 17.3349 17.5483C17.5219 17.6027 17.7513 17.5636 17.9096 17.4503C17.9542 17.4183 17.9923 17.3803 18.0685 17.3041C18.3015 17.0709 18.4181 16.9544 18.5353 16.8783C18.9772 16.5909 19.5469 16.5909 19.9889 16.8783C20.1061 16.9544 20.2226 17.0709 20.4557 17.3041L20.5855 17.4339C20.9399 17.7883 21.117 17.9654 21.2132 18.1557C21.4046 18.534 21.4046 18.9809 21.2132 19.3593C21.117 19.5495 20.9399 19.7267 20.5855 20.0809L20.4805 20.186C20.1274 20.5391 19.9509 20.7157 19.7108 20.8505C19.4445 21.0001 19.0308 21.1077 18.7253 21.1067C18.4501 21.1059 18.2619 21.0525 17.8856 20.9457C15.8633 20.3717 13.9551 19.2888 12.3631 17.6968C10.7711 16.1048 9.68814 14.1965 9.11416 12.1743C9.00735 11.798 8.95394 11.6098 8.95313 11.3345C8.95222 11.0291 9.05979 10.6154 9.2094 10.3491C9.34424 10.109 9.52078 9.93251 9.87386 9.57942L9.97895 9.47433C10.3332 9.12004 10.5104 8.94289 10.7007 8.84666C11.079 8.65528 11.5259 8.65528 11.9042 8.84666C12.0945 8.94289 12.2716 9.12004 12.6259 9.47433L12.7559 9.60425C12.9889 9.83731 13.1055 9.95385 13.1816 10.071C13.469 10.513 13.469 11.0827 13.1816 11.5246C13.1055 11.6418 12.9889 11.7583 12.7559 11.9914C12.6796 12.0676 12.6415 12.1057 12.6096 12.1503C12.4963 12.3085 12.4572 12.538 12.5117 12.725C12.527 12.7775 12.5469 12.8191 12.5869 12.9022Z" stroke="#97938D" stroke-opacity="0.8" stroke-width="1.33333" stroke-linecap="round" stroke-linejoin="round"/>
</svg>
