<svg width="30" height="30" viewBox="0 0 30 30" fill="none" xmlns="http://www.w3.org/2000/svg">
<circle cx="15" cy="15" r="15" fill="#E8683B" fill-opacity="0.1"/>
<path d="M20.9997 13.6667C20.9997 16.7963 18.4627 19.3333 15.3331 19.3333C14.6152 19.3333 13.9285 19.1999 13.2965 18.9563C13.181 18.9119 13.1232 18.8896 13.0772 18.879C13.032 18.8686 12.9993 18.8642 12.953 18.8625C12.9059 18.8607 12.8542 18.866 12.7508 18.8767L9.33678 19.2296C9.01128 19.2632 8.84853 19.2801 8.75253 19.2215C8.66891 19.1705 8.61196 19.0853 8.5968 18.9885C8.57939 18.8774 8.65717 18.7335 8.81271 18.4456L9.90315 16.4272C9.99295 16.261 10.0378 16.1779 10.0582 16.0979C10.0783 16.0191 10.0831 15.9621 10.0767 15.8809C10.0702 15.7987 10.0341 15.6917 9.962 15.4777C9.77031 14.9091 9.66641 14.3 9.66641 13.6667C9.66641 10.5371 12.2035 8 15.3331 8C18.4627 8 20.9997 10.5371 20.9997 13.6667Z" stroke="#E8683B" stroke-width="1.33333" stroke-linecap="round" stroke-linejoin="round"/>
</svg>
