<svg width="30" height="30" viewBox="0 0 30 30" fill="none" xmlns="http://www.w3.org/2000/svg">
<circle cx="15" cy="15" r="15" fill="#E8683B" fill-opacity="0.2"/>
<path d="M21 21.75C21 20.7033 21 20.18 20.8709 19.7542C20.58 18.7954 19.8296 18.045 18.8708 17.7542C18.445 17.625 17.9217 17.625 16.875 17.625H13.125C12.0783 17.625 11.555 17.625 11.1291 17.7542C10.1703 18.045 9.42003 18.7954 9.12918 19.7542C9 20.18 9 20.7033 9 21.75M18.375 11.625C18.375 13.489 16.864 15 15 15C13.136 15 11.625 13.489 11.625 11.625C11.625 9.76104 13.136 8.25 15 8.25C16.864 8.25 18.375 9.76104 18.375 11.625Z" stroke="#E8683B" stroke-width="1.5" stroke-linecap="round" stroke-linejoin="round"/>
</svg>
