<svg width="30" height="30" viewBox="0 0 30 30" fill="none" xmlns="http://www.w3.org/2000/svg">
<circle cx="15" cy="15" r="15" fill="#E8683B" fill-opacity="0.2"/>
<path d="M12 8.25H11.85C10.5899 8.25 9.95982 8.25 9.47852 8.49524C9.05516 8.71095 8.71095 9.05516 8.49524 9.47852C8.25 9.95982 8.25 10.5899 8.25 11.85V12M12 21.75H11.85C10.5899 21.75 9.95982 21.75 9.47852 21.5048C9.05516 21.2891 8.71095 20.9449 8.49524 20.5215C8.25 20.0401 8.25 19.4102 8.25 18.15V18M21.75 12V11.85C21.75 10.5899 21.75 9.95982 21.5048 9.47852C21.2891 9.05516 20.9449 8.71095 20.5215 8.49524C20.0401 8.25 19.4102 8.25 18.15 8.25H18M21.75 18V18.15C21.75 19.4102 21.75 20.0401 21.5048 20.5215C21.2891 20.9449 20.9449 21.2891 20.5215 21.5048C20.0401 21.75 19.4102 21.75 18.15 21.75H18M11.625 12V13.125M18.375 12V13.125M14.25 15.4501C14.85 15.4501 15.375 14.9251 15.375 14.3251V12M17.4002 17.4C16.0502 18.75 13.8752 18.75 12.5252 17.4" stroke="#E8683B" stroke-width="1.5" stroke-linecap="round" stroke-linejoin="round"/>
</svg>
