<svg width="80" height="80" viewBox="0 0 80 80" fill="none" xmlns="http://www.w3.org/2000/svg">
<rect width="80" height="80" rx="40" fill="#E8683B"/>
<path d="M33.3333 25H33C30.1997 25 28.7996 25 27.7301 25.545C26.7892 26.0243 26.0243 26.7892 25.545 27.7301C25 28.7996 25 30.1997 25 33V33.3333M33.3333 55H33C30.1997 55 28.7996 55 27.7301 54.455C26.7892 53.9757 26.0243 53.2108 25.545 52.27C25 51.2003 25 49.8003 25 47V46.6667M55 33.3333V33C55 30.1997 55 28.7996 54.455 27.7301C53.9757 26.7892 53.2108 26.0243 52.27 25.545C51.2003 25 49.8003 25 47 25H46.6667M55 46.6667V47C55 49.8003 55 51.2003 54.455 52.27C53.9757 53.2108 53.2108 53.9757 52.27 54.455C51.2003 55 49.8003 55 47 55H46.6667M32.5 33.3333V35.8333M47.5 33.3333V35.8333M38.3333 41.0002C39.6667 41.0002 40.8333 39.8335 40.8333 38.5002V33.3333M45.3337 45.3333C42.3337 48.3333 37.5003 48.3333 34.5003 45.3333" stroke="white" stroke-width="3.33333" stroke-linecap="round" stroke-linejoin="round"/>
</svg>
