<svg width="30" height="30" viewBox="0 0 30 30" fill="none" xmlns="http://www.w3.org/2000/svg">
<circle cx="15" cy="15" r="15" fill="#E8683B" fill-opacity="0.2"/>
<path d="M13.5 18H16.5M12.6 22.5H17.4C18.6601 22.5 19.2901 22.5 19.7715 22.2548C20.1949 22.0391 20.5391 21.6949 20.7548 21.2715C21 20.7901 21 20.1602 21 18.9V11.1C21 9.83988 21 9.20982 20.7548 8.72852C20.5391 8.30516 20.1949 7.96095 19.7715 7.74524C19.2901 7.5 18.6601 7.5 17.4 7.5H12.6C11.3399 7.5 10.7098 7.5 10.2285 7.74524C9.80516 7.96095 9.46095 8.30516 9.24524 8.72852C9 9.20982 9 9.83988 9 11.1V18.9C9 20.1602 9 20.7901 9.24524 21.2715C9.46095 21.6949 9.80516 22.0391 10.2285 22.2548C10.7098 22.5 11.3399 22.5 12.6 22.5ZM17.25 12.75C17.25 13.9927 16.2427 15 15 15C13.7573 15 12.75 13.9927 12.75 12.75C12.75 11.5074 13.7573 10.5 15 10.5C16.2427 10.5 17.25 11.5074 17.25 12.75Z" stroke="#E8683B" stroke-width="1.5" stroke-linecap="round" stroke-linejoin="round"/>
</svg>
