<svg width="35" height="34" viewBox="0 0 35 34" fill="none" xmlns="http://www.w3.org/2000/svg">
<rect x="0.724976" y="0.5" width="33" height="33" rx="16.5" fill="white"/>
<rect x="0.724976" y="0.5" width="33" height="33" rx="16.5" stroke="#E0E0E0"/>
<g clip-path="url(#clip0_393_1461)">
<path d="M15.6472 22.7916C16.0676 23.1628 16.62 23.3879 17.2249 23.3879C17.8298 23.3879 18.3821 23.1628 18.8026 22.7916M20.8027 15.0397C20.8027 14.0908 20.4258 13.1808 19.7548 12.5098C19.0838 11.8389 18.1738 11.4619 17.2249 11.4619C16.276 11.4619 15.366 11.8389 14.695 12.5098C14.024 13.1808 13.6471 14.0908 13.6471 15.0397C13.6471 16.8824 13.1822 18.1441 12.663 18.9785C12.225 19.6825 12.006 20.0344 12.014 20.1326C12.0229 20.2413 12.0459 20.2828 12.1335 20.3478C12.2127 20.4064 12.5693 20.4064 13.2827 20.4064H21.1671C21.8804 20.4064 22.2371 20.4064 22.3162 20.3478C22.4039 20.2828 22.4269 20.2413 22.4358 20.1326C22.4438 20.0344 22.2248 19.6825 21.7868 18.9785C21.2675 18.1441 20.8027 16.8824 20.8027 15.0397Z" stroke="#1F1F1E" stroke-width="1.1926" stroke-linecap="round" stroke-linejoin="round"/>
</g>
<circle cx="20.2002" cy="10.2" r="3.4" fill="#FF0000"/>
<defs>
<clipPath id="clip0_393_1461">
<rect width="14" height="13.7149" fill="white" transform="translate(10.225 10.5676)"/>
</clipPath>
</defs>
</svg>
