<svg width="14" height="14" viewBox="0 0 14 14" fill="none" xmlns="http://www.w3.org/2000/svg">
<path d="M5.45659 12.2501C5.86791 12.6131 6.40825 12.8334 6.99998 12.8334C7.59177 12.8334 8.13206 12.6131 8.54337 12.2501M10.5 4.66675C10.5 3.73849 10.1313 2.84825 9.47489 2.19187C8.81847 1.5355 7.92824 1.16675 6.99998 1.16675C6.07172 1.16675 5.1815 1.5355 4.52512 2.19187C3.86874 2.84825 3.49999 3.73849 3.49999 4.66675C3.49999 6.46937 3.04527 7.70358 2.53729 8.5199C2.10882 9.20852 1.89458 9.55281 1.90243 9.64888C1.91113 9.75522 1.93366 9.79577 2.01936 9.85935C2.09676 9.91675 2.44567 9.91675 3.14349 9.91675H10.8565C11.5543 9.91675 11.9032 9.91675 11.9806 9.85935C12.0663 9.79577 12.0889 9.75522 12.0976 9.64888C12.1054 9.55281 11.8912 9.20852 11.4627 8.5199C10.9547 7.70358 10.5 6.46937 10.5 4.66675Z" stroke="white" stroke-width="1.16667" stroke-linecap="round" stroke-linejoin="round"/>
</svg>
