<svg width="30" height="30" viewBox="0 0 30 30" fill="none" xmlns="http://www.w3.org/2000/svg">
<g clip-path="url(#clip0_467_5233)">
<path d="M21.6667 14.3906V15.004C21.6659 16.4416 21.2004 17.8404 20.3396 18.9918C19.4788 20.1433 18.2689 20.9856 16.8903 21.3932C15.5116 21.8008 14.0382 21.7519 12.6897 21.2537C11.3412 20.7555 10.1898 19.8347 9.40735 18.6287C8.62489 17.4227 8.25323 15.996 8.34783 14.5615C8.44241 13.127 8.99818 11.7615 9.93223 10.6687C10.8663 9.57586 12.1286 8.81424 13.5308 8.49741C14.9331 8.18058 16.4002 8.32554 17.7134 8.91064M21.6667 9.66683L15 16.3402L13 14.3402" stroke="#008000" stroke-width="1.33333" stroke-linecap="round" stroke-linejoin="round"/>
</g>
<circle opacity="0.4" cx="15" cy="15" r="15" fill="#008000" fill-opacity="0.2"/>
<defs>
<clipPath id="clip0_467_5233">
<rect width="16" height="16" fill="white" transform="translate(7 7)"/>
</clipPath>
</defs>
</svg>
