<svg width="34" height="34" viewBox="0 0 34 34" fill="none" xmlns="http://www.w3.org/2000/svg">
<rect width="34" height="34" rx="17" fill="#E8683B" fill-opacity="0.1"/>
<path d="M23 15.125V13.4C23 12.5599 23 12.1399 22.8365 11.819C22.6927 11.5368 22.4632 11.3073 22.181 11.1635C21.8602 11 21.4401 11 20.6 11H11.9C11.0599 11 10.6399 11 10.319 11.1635C10.0368 11.3073 9.8073 11.5368 9.66349 11.819C9.5 12.1399 9.5 12.5599 9.5 13.4V20.6C9.5 21.4401 9.5 21.8602 9.66349 22.181C9.8073 22.4632 10.0368 22.6927 10.319 22.8365C10.6399 23 11.0599 23 11.9 23H20.6C21.4401 23 21.8602 23 22.181 22.8365C22.4632 22.6927 22.6927 22.4632 22.8365 22.181C23 21.8602 23 21.4401 23 20.6V18.875M19.25 17C19.25 16.6515 19.25 16.4773 19.2788 16.3324C19.3971 15.7373 19.8623 15.2722 20.4574 15.1538C20.6023 15.125 20.7765 15.125 21.125 15.125H22.625C22.9735 15.125 23.1477 15.125 23.2926 15.1538C23.8877 15.2722 24.3528 15.7373 24.4712 16.3324C24.5 16.4773 24.5 16.6515 24.5 17C24.5 17.3485 24.5 17.5227 24.4712 17.6676C24.3528 18.2627 23.8877 18.7279 23.2926 18.8462C23.1477 18.875 22.9735 18.875 22.625 18.875H21.125C20.7765 18.875 20.6023 18.875 20.4574 18.8462C19.8623 18.7279 19.3971 18.2627 19.2788 17.6676C19.25 17.5227 19.25 17.3485 19.25 17Z" stroke="#E8683B" stroke-width="1.5" stroke-linecap="round" stroke-linejoin="round"/>
</svg>
