<svg width="34" height="34" viewBox="0 0 34 34" fill="none" xmlns="http://www.w3.org/2000/svg">
<rect width="34" height="34" rx="17" fill="#E8683B" fill-opacity="0.1"/>
<path d="M24.2857 15.4998H9.28571M9.28571 14.1498V19.8498C9.28571 20.6898 9.28571 21.1099 9.4492 21.4308C9.593 21.713 9.82247 21.9425 10.1047 22.0863C10.4256 22.2498 10.8456 22.2498 11.6857 22.2498H21.8857C22.7258 22.2498 23.1459 22.2498 23.4667 22.0863C23.7489 21.9425 23.9784 21.713 24.1222 21.4308C24.2857 21.1099 24.2857 20.6898 24.2857 19.8498V14.1498C24.2857 13.3097 24.2857 12.8896 24.1222 12.5688C23.9784 12.2865 23.7489 12.0571 23.4667 11.9132C23.1459 11.7498 22.7258 11.7498 21.8857 11.7498H11.6857C10.8456 11.7498 10.4256 11.7498 10.1047 11.9132C9.82248 12.0571 9.593 12.2865 9.4492 12.5688C9.28571 12.8896 9.28571 13.3097 9.28571 14.1498Z" stroke="#E8683B" stroke-width="1.5" stroke-linecap="round" stroke-linejoin="round"/>
</svg>
