<svg width="14" height="15" viewBox="0 0 14 15" fill="none" xmlns="http://www.w3.org/2000/svg">
<path d="M8.16671 1.82373V4.23321C8.16671 4.55991 8.16671 4.72326 8.23029 4.84804C8.28623 4.9578 8.37542 5.04704 8.48521 5.10297C8.60998 5.16654 8.77332 5.16654 9.10004 5.16654H11.5095M8.16671 10.4165H4.66671M9.33337 8.08317H4.66671M11.6667 6.3263V10.5332C11.6667 11.5133 11.6667 12.0033 11.476 12.3777C11.3082 12.707 11.0405 12.9747 10.7112 13.1424C10.3368 13.3332 9.84682 13.3332 8.86671 13.3332H5.13337C4.15328 13.3332 3.66323 13.3332 3.28889 13.1424C2.95961 12.9747 2.69189 12.707 2.52411 12.3777C2.33337 12.0033 2.33337 11.5133 2.33337 10.5332V4.4665C2.33337 3.48641 2.33337 2.99636 2.52411 2.62202C2.69189 2.29274 2.95961 2.02502 3.28889 1.85724C3.66323 1.6665 4.15328 1.6665 5.13337 1.6665H7.00692C7.43492 1.6665 7.64894 1.6665 7.85037 1.71486C8.02892 1.75773 8.19961 1.82843 8.35623 1.92438C8.53281 2.0326 8.68412 2.18394 8.98682 2.48661L10.8466 4.3464C11.1493 4.64907 11.3006 4.8004 11.4088 4.97701C11.5048 5.13358 11.5755 5.30429 11.6183 5.48285C11.6667 5.68425 11.6667 5.89827 11.6667 6.3263Z" stroke="#E8683B" stroke-width="1.16667" stroke-linecap="round" stroke-linejoin="round"/>
</svg>
