<svg width="16" height="16" viewBox="0 0 16 16" fill="none" xmlns="http://www.w3.org/2000/svg">
<path d="M3.99967 7.33341V10.0001M11.9997 6.00008V8.66675M11.333 2.66675C12.9655 2.66675 13.8484 2.91659 14.2877 3.11037C14.3463 3.13618 14.3755 3.14909 14.4599 3.22966C14.5105 3.27796 14.6029 3.41967 14.6267 3.48547C14.6663 3.59524 14.6663 3.65524 14.6663 3.77524V10.9408C14.6663 11.5467 14.6663 11.8496 14.5755 12.0053C14.4831 12.1637 14.3939 12.2373 14.2209 12.2982C14.0509 12.358 13.7077 12.2921 13.0211 12.1601C12.5406 12.0679 11.9707 12.0001 11.333 12.0001C9.33301 12.0001 7.33301 13.3334 4.66634 13.3334C3.03387 13.3334 2.15092 13.0835 1.71159 12.8898C1.65309 12.8639 1.62383 12.8511 1.53941 12.7705C1.4888 12.7222 1.39642 12.5805 1.37265 12.5147C1.33301 12.4049 1.33301 12.3449 1.33301 12.2249V5.05931C1.33301 4.45347 1.33301 4.15055 1.42386 3.99484C1.51627 3.83645 1.6054 3.76283 1.77838 3.70195C1.94843 3.64211 2.29169 3.70807 2.97823 3.83998C3.45875 3.93231 4.02866 4.00008 4.66634 4.00008C6.66634 4.00008 8.66634 2.66675 11.333 2.66675ZM9.66634 8.00008C9.66634 8.92055 8.92014 9.66675 7.99967 9.66675C7.07921 9.66675 6.33301 8.92055 6.33301 8.00008C6.33301 7.07961 7.07921 6.33341 7.99967 6.33341C8.92014 6.33341 9.66634 7.07961 9.66634 8.00008Z" stroke="#E8683B" stroke-width="1.33333" stroke-linecap="round" stroke-linejoin="round"/>
</svg>
