<svg width="38" height="38" viewBox="0 0 38 38" fill="none" xmlns="http://www.w3.org/2000/svg">
<rect width="38" height="38" rx="8" fill="#E8683B"/>
<path d="M17.7496 20.2502L26.4996 11.5001M17.8559 20.5235L20.046 26.1552C20.2389 26.6514 20.3354 26.8994 20.4744 26.9718C20.5949 27.0346 20.7385 27.0347 20.859 26.972C20.9981 26.8998 21.0949 26.6519 21.2884 26.1559L26.7803 12.0828C26.9551 11.6352 27.0424 11.4113 26.9946 11.2683C26.9531 11.1441 26.8556 11.0466 26.7314 11.0051C26.5884 10.9574 26.3646 11.0447 25.9169 11.2194L11.8438 16.7113C11.3479 16.9049 11.1 17.0016 11.0277 17.1407C10.9651 17.2613 10.9651 17.4049 11.0279 17.5254C11.1003 17.6644 11.3484 17.7608 11.8445 17.9538L17.4762 20.1439C17.5769 20.183 17.6272 20.2026 17.6696 20.2329C17.7072 20.2596 17.7401 20.2925 17.7669 20.3301C17.7971 20.3724 17.8167 20.4229 17.8559 20.5235Z" stroke="white" stroke-width="1.66667" stroke-linecap="round" stroke-linejoin="round"/>
</svg>
