<svg width="20" height="21" viewBox="0 0 20 21" fill="none" xmlns="http://www.w3.org/2000/svg">
<path d="M14.1666 8.83333V7.16667C14.1666 4.86548 12.3011 3 9.99992 3C7.69874 3 5.83325 4.86548 5.83325 7.16667V8.83333M9.99992 12.5833V14.25M7.33325 18H12.6666C14.0668 18 14.7668 18 15.3016 17.7275C15.772 17.4878 16.1544 17.1054 16.3941 16.635C16.6666 16.1002 16.6666 15.4002 16.6666 14V12.8333C16.6666 11.4332 16.6666 10.7332 16.3941 10.1983C16.1544 9.72792 15.772 9.3455 15.3016 9.10583C14.7668 8.83333 14.0668 8.83333 12.6666 8.83333H7.33325C5.93312 8.83333 5.23305 8.83333 4.69828 9.10583C4.22787 9.3455 3.84542 9.72792 3.60574 10.1983C3.33325 10.7332 3.33325 11.4332 3.33325 12.8333V14C3.33325 15.4002 3.33325 16.1002 3.60574 16.635C3.84542 17.1054 4.22787 17.4878 4.69828 17.7275C5.23305 18 5.93312 18 7.33325 18Z" stroke="#767676" stroke-width="2" stroke-linecap="round" stroke-linejoin="round"/>
</svg>
