<svg width="18" height="19" viewBox="0 0 18 19" fill="none" xmlns="http://www.w3.org/2000/svg">
<path d="M16.5 8H1.5M1.5 6.65V12.35C1.5 13.1901 1.5 13.6102 1.66349 13.931C1.8073 14.2132 2.03677 14.4427 2.31902 14.5865C2.63988 14.75 3.05992 14.75 3.9 14.75H14.1C14.9401 14.75 15.3602 14.75 15.681 14.5865C15.9632 14.4427 16.1927 14.2132 16.3365 13.931C16.5 13.6102 16.5 13.1901 16.5 12.35V6.65C16.5 5.80992 16.5 5.38988 16.3365 5.06902C16.1927 4.78678 15.9632 4.5573 15.681 4.41349C15.3602 4.25 14.9401 4.25 14.1 4.25H3.9C3.05992 4.25 2.63988 4.25 2.31902 4.41349C2.03678 4.5573 1.8073 4.78677 1.66349 5.06902C1.5 5.38988 1.5 5.80992 1.5 6.65Z" stroke="#767676" stroke-width="1.5" stroke-linecap="round" stroke-linejoin="round"/>
</svg>
