<svg width="18" height="19" viewBox="0 0 18 19" fill="none" xmlns="http://www.w3.org/2000/svg">
<path d="M8.25 3.49968H5.1C3.83988 3.49968 3.20982 3.49968 2.72852 3.74492C2.30516 3.96063 1.96095 4.30484 1.74524 4.7282C1.5 5.20951 1.5 5.83957 1.5 7.09968V13.3997C1.5 14.6598 1.5 15.2898 1.74524 15.7712C1.96095 16.1945 2.30516 16.5387 2.72852 16.7544C3.20982 16.9997 3.83988 16.9997 5.1 16.9997H11.4C12.6601 16.9997 13.2901 16.9997 13.7715 16.7544C14.1949 16.5387 14.5391 16.1945 14.7548 15.7712C15 15.2898 15 14.6598 15 13.3997V10.2497M5.99998 12.4997H7.25589C7.62277 12.4997 7.80623 12.4997 7.97888 12.4582C8.13188 12.4215 8.2782 12.3609 8.41245 12.2787C8.5638 12.1859 8.69355 12.0561 8.95297 11.7967L16.125 4.62468C16.7463 4.00337 16.7463 2.996 16.125 2.37468C15.5037 1.75337 14.4963 1.75336 13.875 2.37468L6.70292 9.54672C6.4435 9.80615 6.31379 9.93589 6.22102 10.0872C6.13878 10.2215 6.07817 10.3677 6.04142 10.5208C5.99998 10.6935 5.99998 10.8769 5.99998 11.2438V12.4997Z" stroke="#767676" stroke-width="1.5" stroke-linecap="round" stroke-linejoin="round"/>
</svg>
