<svg width="18" height="19" viewBox="0 0 18 19" fill="none" xmlns="http://www.w3.org/2000/svg">
<path d="M8.46202 3.08993C8.63482 2.73973 8.7213 2.56462 8.8386 2.50867C8.94067 2.46 9.05932 2.46 9.1614 2.50867C9.27877 2.56462 9.36517 2.73973 9.53805 3.08993L11.1781 6.4124C11.2291 6.51579 11.2546 6.56749 11.2918 6.60763C11.3249 6.64316 11.3645 6.67195 11.4085 6.69241C11.4582 6.71551 11.5152 6.72385 11.6293 6.74052L15.2977 7.27672C15.6841 7.33318 15.8772 7.36141 15.9666 7.45577C16.0444 7.53786 16.0809 7.65067 16.0661 7.76277C16.0491 7.89163 15.9093 8.02784 15.6296 8.30024L12.976 10.8847C12.8934 10.9653 12.852 11.0056 12.8253 11.0536C12.8017 11.0959 12.7865 11.1426 12.7807 11.1908C12.7741 11.2453 12.7838 11.3022 12.8033 11.416L13.4295 15.0665C13.4955 15.4516 13.5285 15.6441 13.4665 15.7583C13.4125 15.8577 13.3165 15.9274 13.2053 15.9481C13.0774 15.9718 12.9046 15.8808 12.5588 15.699L9.2793 13.9743C9.17707 13.9206 9.126 13.8937 9.07215 13.8832C9.02452 13.8738 8.97547 13.8738 8.92785 13.8832C8.874 13.8937 8.82292 13.9206 8.72077 13.9743L5.44119 15.699C5.09544 15.8808 4.92256 15.9718 4.79473 15.9481C4.68351 15.9274 4.58754 15.8577 4.53355 15.7583C4.4715 15.6441 4.50452 15.4516 4.57055 15.0665L5.19667 11.416C5.21618 11.3022 5.22594 11.2453 5.21934 11.1908C5.21349 11.1426 5.19833 11.0959 5.17471 11.0536C5.14801 11.0056 5.10666 10.9653 5.02394 10.8847L2.37042 8.30024C2.09074 8.02784 1.9509 7.89163 1.93389 7.76277C1.91909 7.65067 1.95566 7.53786 2.03343 7.45577C2.12283 7.36141 2.31597 7.33318 2.70228 7.27672L6.37073 6.74052C6.48481 6.72385 6.54186 6.71551 6.59154 6.69241C6.63552 6.67195 6.67512 6.64316 6.70814 6.60763C6.74543 6.56749 6.77095 6.51579 6.82198 6.4124L8.46202 3.08993Z" stroke="#767676" stroke-width="1.5" stroke-linecap="round" stroke-linejoin="round"/>
</svg>
