<svg width="18" height="19" viewBox="0 0 18 19" fill="none" xmlns="http://www.w3.org/2000/svg">
<path d="M9 5V17M9 5H6.34822C5.95749 5 5.58277 4.84197 5.3065 4.56066C5.03021 4.27935 4.875 3.89782 4.875 3.5C4.875 3.10218 5.03021 2.72064 5.3065 2.43934C5.58277 2.15803 5.95749 2 6.34822 2C8.41072 2 9 5 9 5ZM9 5H11.6518C12.0425 5 12.4172 4.84197 12.6935 4.56066C12.9697 4.27935 13.125 3.89782 13.125 3.5C13.125 3.10218 12.9697 2.72064 12.6935 2.43934C12.4172 2.15803 12.0425 2 11.6518 2C9.58927 2 9 5 9 5ZM15 8.75V14.6C15 15.4401 15 15.8602 14.8365 16.181C14.6927 16.4632 14.4632 16.6927 14.181 16.8365C13.8602 17 13.4401 17 12.6 17H5.4C4.55992 17 4.13988 17 3.81902 16.8365C3.53677 16.6927 3.3073 16.4632 3.16349 16.181C3 15.8602 3 15.4401 3 14.6V8.75M1.5 6.2V7.55C1.5 7.97004 1.5 8.18008 1.58174 8.3405C1.65365 8.48165 1.76839 8.59632 1.90951 8.66825C2.06994 8.75 2.27996 8.75 2.7 8.75H15.3C15.7201 8.75 15.9301 8.75 16.0905 8.66825C16.2317 8.59632 16.3463 8.48165 16.4183 8.3405C16.5 8.18008 16.5 7.97004 16.5 7.55V6.2C16.5 5.77996 16.5 5.56994 16.4183 5.40951C16.3463 5.26839 16.2317 5.15365 16.0905 5.08174C15.9301 5 15.7201 5 15.3 5H2.7C2.27996 5 2.06994 5 1.90951 5.08174C1.76839 5.15365 1.65365 5.26839 1.58174 5.40951C1.5 5.56994 1.5 5.77996 1.5 6.2Z" stroke="#767676" stroke-width="1.5" stroke-linecap="round" stroke-linejoin="round"/>
</svg>
