<svg width="18" height="19" viewBox="0 0 18 19" fill="none" xmlns="http://www.w3.org/2000/svg">
<path d="M5.625 9.5H5.6325M9 9.5H9.0075M12.375 9.5H12.3825M9 16.25C12.728 16.25 15.75 13.228 15.75 9.5C15.75 5.77208 12.728 2.75 9 2.75C5.27208 2.75 2.25 5.77208 2.25 9.5C2.25 10.3978 2.42531 11.2548 2.74355 12.0384C2.80445 12.1884 2.83491 12.2634 2.8485 12.324C2.86179 12.3832 2.86665 12.4271 2.86666 12.4879C2.86667 12.55 2.85539 12.6177 2.83283 12.7531L2.3881 15.4214C2.34152 15.7009 2.31824 15.8406 2.36157 15.9416C2.3995 16.03 2.46996 16.1005 2.55839 16.1384C2.65942 16.1818 2.79914 16.1585 3.07857 16.1119L5.74699 15.6672C5.88232 15.6446 5.94998 15.6333 6.0121 15.6333C6.07286 15.6333 6.11675 15.6382 6.17604 15.6515C6.23666 15.6651 6.31164 15.6955 6.46162 15.7564C7.24523 16.0747 8.10217 16.25 9 16.25ZM6 9.5C6 9.70708 5.83211 9.875 5.625 9.875C5.41789 9.875 5.25 9.70708 5.25 9.5C5.25 9.29292 5.41789 9.125 5.625 9.125C5.83211 9.125 6 9.29292 6 9.5ZM9.375 9.5C9.375 9.70708 9.20708 9.875 9 9.875C8.79292 9.875 8.625 9.70708 8.625 9.5C8.625 9.29292 8.79292 9.125 9 9.125C9.20708 9.125 9.375 9.29292 9.375 9.5ZM12.75 9.5C12.75 9.70708 12.5821 9.875 12.375 9.875C12.1679 9.875 12 9.70708 12 9.5C12 9.29292 12.1679 9.125 12.375 9.125C12.5821 9.125 12.75 9.29292 12.75 9.5Z" stroke="#767676" stroke-width="1.5" stroke-linecap="round" stroke-linejoin="round"/>
</svg>
