<svg width="34" height="34" viewBox="0 0 34 34" fill="none" xmlns="http://www.w3.org/2000/svg">
<circle cx="17" cy="17" r="17" fill="#008000" fill-opacity="0.1"/>
<g clip-path="url(#clip0_1352_1623)">
<path d="M24.5 16.3143V17.0043C24.4991 18.6216 23.9754 20.1953 23.007 21.4906C22.0386 22.786 20.6775 23.7337 19.1265 24.1922C17.5755 24.6508 15.918 24.5957 14.4009 24.0352C12.8838 23.4748 11.5885 22.4389 10.7082 21.0821C9.82795 19.7254 9.40984 18.1204 9.51626 16.5065C9.62267 14.8927 10.2479 13.3565 11.2987 12.1271C12.3495 10.8977 13.7696 10.0408 15.3471 9.6844C16.9247 9.32797 18.5752 9.49105 20.0525 10.1493M24.5 11L17 18.5075L14.75 16.2575" stroke="#008000" stroke-width="1.5" stroke-linecap="round" stroke-linejoin="round"/>
</g>
<defs>
<clipPath id="clip0_1352_1623">
<rect width="18" height="18" fill="white" transform="translate(8 8)"/>
</clipPath>
</defs>
</svg>
