<svg width="14" height="15" viewBox="0 0 14 15" fill="none" xmlns="http://www.w3.org/2000/svg">
<path d="M12.8333 6.33341H1.16663M1.16663 5.28341V9.71675C1.16663 10.3701 1.16663 10.6969 1.29379 10.9464C1.40564 11.1659 1.58411 11.3444 1.80364 11.4562C2.0532 11.5834 2.3799 11.5834 3.03329 11.5834H10.9666C11.62 11.5834 11.9467 11.5834 12.1963 11.4562C12.4158 11.3444 12.5943 11.1659 12.7061 10.9464C12.8333 10.6969 12.8333 10.3701 12.8333 9.71675V5.28341C12.8333 4.63002 12.8333 4.30332 12.7061 4.05376C12.5943 3.83424 12.4158 3.65576 12.1963 3.54391C11.9467 3.41675 11.62 3.41675 10.9666 3.41675H3.03329C2.3799 3.41675 2.0532 3.41675 1.80364 3.54391C1.58412 3.65576 1.40564 3.83423 1.29379 4.05376C1.16663 4.30332 1.16663 4.63002 1.16663 5.28341Z" stroke="#767676" stroke-width="1.16667" stroke-linecap="round" stroke-linejoin="round"/>
</svg>
