<svg width="30" height="30" viewBox="0 0 30 30" fill="none" xmlns="http://www.w3.org/2000/svg">
<circle cx="15" cy="15" r="15" fill="#E8683B" fill-opacity="0.2"/>
<path d="M12 21.75V11.25C12 10.5525 12 10.2038 12.0767 9.91765C12.2847 9.1412 12.8912 8.53472 13.6676 8.32667C13.9538 8.25 14.3025 8.25 15 8.25C15.6975 8.25 16.0462 8.25 16.3324 8.32667C17.1088 8.53472 17.7153 9.1412 17.9234 9.91765C18 10.2038 18 10.5525 18 11.25V21.75M9.9 21.75H20.1C20.9401 21.75 21.3602 21.75 21.681 21.5865C21.9632 21.4427 22.1927 21.2132 22.3365 20.931C22.5 20.6102 22.5 20.1901 22.5 19.35V13.65C22.5 12.8099 22.5 12.3899 22.3365 12.069C22.1927 11.7868 21.9632 11.5573 21.681 11.4135C21.3602 11.25 20.9401 11.25 20.1 11.25H9.9C9.05992 11.25 8.63988 11.25 8.31902 11.4135C8.03677 11.5573 7.8073 11.7868 7.66349 12.069C7.5 12.3899 7.5 12.8099 7.5 13.65V19.35C7.5 20.1901 7.5 20.6102 7.66349 20.931C7.8073 21.2132 8.03677 21.4427 8.31902 21.5865C8.63988 21.75 9.05992 21.75 9.9 21.75Z" stroke="#E8683B" stroke-width="1.5" stroke-linecap="round" stroke-linejoin="round"/>
</svg>
