<svg width="35" height="34" viewBox="0 0 35 34" fill="none" xmlns="http://www.w3.org/2000/svg">
<rect x="0.724976" y="0.5" width="33" height="33" rx="16.5" fill="white"/>
<rect x="0.724976" y="0.5" width="33" height="33" rx="16.5" stroke="#E0E0E0"/>
<g clip-path="url(#clip0_393_1456)">
<path d="M21.8916 15.5416V14.1999C21.8916 13.5465 21.8916 13.2198 21.7644 12.9703C21.6526 12.7507 21.4741 12.5723 21.2546 12.4604C21.0051 12.3333 20.6783 12.3333 20.0249 12.3333H13.2583C12.6049 12.3333 12.2782 12.3333 12.0286 12.4604C11.8091 12.5723 11.6306 12.7507 11.5188 12.9703C11.3916 13.2198 11.3916 13.5465 11.3916 14.1999V19.7999C11.3916 20.4533 11.3916 20.78 11.5188 21.0296C11.6306 21.2491 11.8091 21.4276 12.0286 21.5394C12.2782 21.6666 12.6049 21.6666 13.2583 21.6666H20.0249C20.6783 21.6666 21.0051 21.6666 21.2546 21.5394C21.4741 21.4276 21.6526 21.2491 21.7644 21.0296C21.8916 20.78 21.8916 20.4533 21.8916 19.7999V18.4583M18.9749 16.9999C18.9749 16.7288 18.9749 16.5933 18.9973 16.4806C19.0894 16.0178 19.4512 15.6561 19.914 15.564C20.0267 15.5416 20.1622 15.5416 20.4333 15.5416H21.5999C21.871 15.5416 22.0065 15.5416 22.1192 15.564C22.582 15.6561 22.9438 16.0178 23.0359 16.4806C23.0583 16.5933 23.0583 16.7288 23.0583 16.9999C23.0583 17.271 23.0583 17.4065 23.0359 17.5192C22.9438 17.982 22.582 18.3438 22.1192 18.4359C22.0065 18.4583 21.871 18.4583 21.5999 18.4583H20.4333C20.1622 18.4583 20.0267 18.4583 19.914 18.4359C19.4512 18.3438 19.0894 17.982 18.9973 17.5192C18.9749 17.4065 18.9749 17.271 18.9749 16.9999Z" stroke="#1F1F1E" stroke-width="1.16667" stroke-linecap="round" stroke-linejoin="round"/>
</g>
<defs>
<clipPath id="clip0_393_1456">
<rect width="14" height="14" fill="white" transform="translate(10.225 10)"/>
</clipPath>
</defs>
</svg>
